<svg width="24" height="24" viewBox="0 0 24 24" fill="none" xmlns="http://www.w3.org/2000/svg">
<path d="M17.1429 4C18.6577 4 19.8972 5.1789 19.9939 6.66929L20 6.85714V17.1429C20 18.6577 18.8211 19.8972 17.3307 19.9939L17.1429 20H6.85714C5.34231 20 4.10281 18.8211 4.00608 17.3307L4 17.1429V6.85714C4 5.34231 5.1789 4.10281 6.66929 4.00608L6.85714 4H17.1429ZM18.8571 8.57143H5.14286V17.1429C5.14286 18.0339 5.82273 18.7662 6.69204 18.8493L6.85714 18.8571H17.1429C18.0339 18.8571 18.7662 18.1772 18.8493 17.3079L18.8571 17.1429V8.57143ZM8.57143 14.2857C9.20261 14.2857 9.71429 14.7974 9.71429 15.4286C9.71429 16.0598 9.20261 16.5714 8.57143 16.5714C7.94025 16.5714 7.42857 16.0598 7.42857 15.4286C7.42857 14.7974 7.94025 14.2857 8.57143 14.2857ZM12 14.2857C12.6312 14.2857 13.1429 14.7974 13.1429 15.4286C13.1429 16.0598 12.6312 16.5714 12 16.5714C11.3688 16.5714 10.8571 16.0598 10.8571 15.4286C10.8571 14.7974 11.3688 14.2857 12 14.2857ZM8.57143 10.8571C9.20261 10.8571 9.71429 11.3688 9.71429 12C9.71429 12.6312 9.20261 13.1429 8.57143 13.1429C7.94025 13.1429 7.42857 12.6312 7.42857 12C7.42857 11.3688 7.94025 10.8571 8.57143 10.8571ZM12 10.8571C12.6312 10.8571 13.1429 11.3688 13.1429 12C13.1429 12.6312 12.6312 13.1429 12 13.1429C11.3688 13.1429 10.8571 12.6312 10.8571 12C10.8571 11.3688 11.3688 10.8571 12 10.8571ZM15.4286 10.8571C16.0598 10.8571 16.5714 11.3688 16.5714 12C16.5714 12.6312 16.0598 13.1429 15.4286 13.1429C14.7974 13.1429 14.2857 12.6312 14.2857 12C14.2857 11.3688 14.7974 10.8571 15.4286 10.8571ZM17.1429 5.14286H6.85714C5.96606 5.14286 5.23377 5.82273 5.1507 6.69204L5.14286 6.85714V7.42857H18.8571V6.85714C18.8571 5.96606 18.1772 5.23377 17.3079 5.1507L17.1429 5.14286Z" fill="#3E4446"/>
</svg>
